<svg xmlns="http://www.w3.org/2000/svg" xmlns:xlink="http://www.w3.org/1999/xlink" viewBox="0 0 199.38 64.86"><defs><linearGradient id="Gradiente_sem_nome_11" x1="38.31" y1="762.54" x2="12.2" y2="793.38" gradientTransform="matrix(1.05, 0, 0, -1.05, -13.45, 835.26)" gradientUnits="userSpaceOnUse"><stop offset="0" stop-color="#1e84c2"/><stop offset="1" stop-color="#4fc0db"/></linearGradient><linearGradient id="Gradiente_sem_nome_2" x1="70.57" y1="740.21" x2="45.17" y2="770.19" gradientTransform="matrix(1.05, 0, 0, -1.05, -13.45, 835.26)" gradientUnits="userSpaceOnUse"><stop offset="0" stop-color="#191e3a"/><stop offset="1" stop-color="#004a84"/></linearGradient></defs><title>qAtivo 1</title><g id="Camada_2" data-name="Camada 2"><g id="Camada_1-2" data-name="Camada 1"><path d="M10.19,0H41.36c.81,0,1.93-.14,2.53.49a1.58,1.58,0,0,1,.4.78,17,17,0,0,1,.05,2.77V10a6.22,6.22,0,0,1-1.08,3.89,39.25,39.25,0,0,1-3.66,3.77L32.28,25l-28,27.87c-.5.49-3.33,3.5-3.74,3.54a.47.47,0,0,1-.34-.1C0,56.11,0,55.77,0,55.56,0,53,0,50.37,0,47.78V44.7c0-.61,0-1.22,0-1.83a5.81,5.81,0,0,1,.32-1.43,6.25,6.25,0,0,1,1.15-2c.72-.88,1.58-1.66,2.37-2.46C5.45,35.45,7,33.88,8.55,32.33l11.38-11.4,4.32-4.31c.7-.7,1.43-1.39,2.11-2.12a1.33,1.33,0,0,0,.43-.93c-.05-.68-.94-.89-1.49-.91-1.91-.07-3.85,0-5.77,0H3.85a22,22,0,0,1-2.3,0,1.56,1.56,0,0,1-.9-.36,1.91,1.91,0,0,1-.6-1.52c-.1-2,0-4,0-6a28.77,28.77,0,0,1,0-3.22A1.68,1.68,0,0,1,.48.53,1.63,1.63,0,0,1,1.42.08a18.68,18.68,0,0,1,2.9,0Z" style="fill:url(#Gradiente_sem_nome_11)"/><path d="M59,4.69a6.06,6.06,0,0,1,.54-.47A.49.49,0,0,1,60,4.14a.57.57,0,0,1,.21.32c.06,1.25,0,2.5,0,3.75v9.23a9.12,9.12,0,0,0,0,1.17,6.47,6.47,0,0,1-1.08,3.18A18.12,18.12,0,0,1,57,24.14l-3.44,3.39L40.23,40.79l-2.84,2.83a12.11,12.11,0,0,0-1.49,1.55,1.3,1.3,0,0,0-.11.93l0,0a1,1,0,0,0,.74.53,7.51,7.51,0,0,0,1.5,0H56.84a10.62,10.62,0,0,1,2.11.07,1.63,1.63,0,0,1,.93.61,2.06,2.06,0,0,1,.34,1c.05.5,0,1,0,1.54v5.9a9.34,9.34,0,0,1-.07,1.91,1.64,1.64,0,0,1-.73,1.08,2.59,2.59,0,0,1-1.35.24c-3.25.08-6.52,0-9.77,0H21.44A25.59,25.59,0,0,1,18,59a1.61,1.61,0,0,1-1.12-.76,2.33,2.33,0,0,1-.29-.89c0-1.31,0-2.63,0-3.93s0-2.71,0-4.07A6.5,6.5,0,0,1,18,45.9a34.11,34.11,0,0,1,3.39-3.52l6-6L47.53,16.21l6.66-6.66c1.16-1.15,2.43-2.27,3.5-3.5A17.32,17.32,0,0,0,59,4.69Z" style="fill:url(#Gradiente_sem_nome_2)"/><text transform="translate(60.52 52.31)" style="font-size:42.401100158691406px;fill:#1e84c2;font-family:Gotham-Bold, Gotham;font-weight:700">ielHub</text></g></g></svg>