<svg xmlns="http://www.w3.org/2000/svg" viewBox="0 0 120 40" fill="white">
  <path d="M35.654 22.536L31.19 31.31h8.927l-4.463-8.774zm-7.224 14.196l-5.57-10.95h-4.5l9.013 17.734h6.562l9.013-17.734h-4.5l-5.57 10.95h-4.448z"/>
  <path d="M52.866 22.536L48.402 31.31h8.927l-4.463-8.774zm-7.224 14.196l-5.57-10.95h-4.5l9.013 17.734h6.562l9.013-17.734h-4.5l-5.57 10.95h-4.448z"/>
  <path d="M70.078 22.536L65.614 31.31h8.927l-4.463-8.774zm-7.224 14.196l-5.57-10.95h-4.5l9.013 17.734h6.562l9.013-17.734h-4.5l-5.57 10.95h-4.448z"/>
  <path d="M7.5 25.732L2.936 34.506h8.927L7.5 25.732zM.276 39.928l-5.57-10.95h-4.5l9.013 17.734h6.562l9.013-17.734h-4.5l-5.57 10.95H.276z"/>
  <text x="85" y="28" font-family="Arial, sans-serif" font-weight="bold" font-size="16" fill="white">adidas</text>
</svg>
